<?xml version="1.0" encoding="UTF-8" standalone="no"?><!DOCTYPE svg PUBLIC "-//W3C//DTD SVG 1.1//EN" "http://www.w3.org/Graphics/SVG/1.1/DTD/svg11.dtd"><!-- Generated by graphviz version 2.40.1 (20161225.0304)
 --><!-- Title: G Pages: 1 --><svg xmlns="http://www.w3.org/2000/svg" xmlns:xlink="http://www.w3.org/1999/xlink" width="278pt" height="364pt" viewBox="0.00 0.00 278.00 364.00">
<g id="graph0" class="graph" transform="scale(1 1) rotate(0) translate(4 360)">
<title>G</title>
<polygon fill="#ffffff" stroke="transparent" points="-4,4 -4,-360 274,-360 274,4 -4,4"/>
<text text-anchor="middle" x="135" y="-159.4" font-family="Times,serif" font-size="14.00" fill="#000000">The most frequent sum: 8. </text>
<text text-anchor="middle" x="135" y="-142.6" font-family="Times,serif" font-size="14.00" fill="#000000"> Explaining: </text>
<text text-anchor="middle" x="135" y="-125.8" font-family="Times,serif" font-size="14.00" fill="#000000">All sums: </text>
<text text-anchor="middle" x="135" y="-109" font-family="Times,serif" font-size="14.00" fill="#000000"> 3 </text>
<text text-anchor="middle" x="135" y="-92.2" font-family="Times,serif" font-size="14.00" fill="#000000"> 5 </text>
<text text-anchor="middle" x="135" y="-75.4" font-family="Times,serif" font-size="14.00" fill="#000000"> 0 </text>
<text text-anchor="middle" x="135" y="-58.6" font-family="Times,serif" font-size="14.00" fill="#000000"> -4</text>
<text text-anchor="middle" x="135" y="-41.8" font-family="Times,serif" font-size="14.00" fill="#000000">2 + 3 + 5 = 8</text>
<text text-anchor="middle" x="135" y="-25" font-family="Times,serif" font-size="14.00" fill="#000000"> 12 + 0 - 4 = 8</text>
<text text-anchor="middle" x="135" y="-8.2" font-family="Times,serif" font-size="14.00" fill="#000000"> 15 + 2 + 3 + 5 + 12 + 0 -4 = 33</text>
<!-- 15 -->
<g id="node1" class="node">
<title>15</title>
<ellipse fill="none" stroke="#000000" cx="135" cy="-338" rx="27" ry="18"/>
<text text-anchor="middle" x="135" y="-333.8" font-family="Times,serif" font-size="14.00" fill="#000000">15</text>
</g>
<!-- 2 -->
<g id="node2" class="node">
<title>2</title>
<ellipse fill="none" stroke="#000000" cx="99" cy="-266" rx="27" ry="18"/>
<text text-anchor="middle" x="99" y="-261.8" font-family="Times,serif" font-size="14.00" fill="#000000">2</text>
</g>
<!-- 15&#45;&gt;2 -->
<g id="edge1" class="edge">
<title>15-&gt;2</title>
<path fill="none" stroke="#000000" d="M126.2854,-320.5708C122.0403,-312.0807 116.8464,-301.6929 112.1337,-292.2674"/>
<polygon fill="#000000" stroke="#000000" points="115.237,-290.6477 107.6343,-283.2687 108.976,-293.7782 115.237,-290.6477"/>
</g>
<!-- 12 -->
<g id="node3" class="node">
<title>12</title>
<ellipse fill="none" stroke="#000000" cx="171" cy="-266" rx="27" ry="18"/>
<text text-anchor="middle" x="171" y="-261.8" font-family="Times,serif" font-size="14.00" fill="#000000">12</text>
</g>
<!-- 15&#45;&gt;12 -->
<g id="edge2" class="edge">
<title>15-&gt;12</title>
<path fill="none" stroke="#000000" d="M143.7146,-320.5708C147.9597,-312.0807 153.1536,-301.6929 157.8663,-292.2674"/>
<polygon fill="#000000" stroke="#000000" points="161.024,-293.7782 162.3657,-283.2687 154.763,-290.6477 161.024,-293.7782"/>
</g>
<!-- 3 -->
<g id="node4" class="node">
<title>3</title>
<ellipse fill="none" stroke="#000000" cx="27" cy="-194" rx="27" ry="18"/>
<text text-anchor="middle" x="27" y="-189.8" font-family="Times,serif" font-size="14.00" fill="#000000">3</text>
</g>
<!-- 2&#45;&gt;3 -->
<g id="edge3" class="edge">
<title>2-&gt;3</title>
<path fill="none" stroke="#000000" d="M83.7307,-250.7307C73.803,-240.803 60.6847,-227.6847 49.5637,-216.5637"/>
<polygon fill="#000000" stroke="#000000" points="51.7933,-213.8436 42.2473,-209.2473 46.8436,-218.7933 51.7933,-213.8436"/>
</g>
<!-- 5 -->
<g id="node5" class="node">
<title>5</title>
<ellipse fill="none" stroke="#000000" cx="99" cy="-194" rx="27" ry="18"/>
<text text-anchor="middle" x="99" y="-189.8" font-family="Times,serif" font-size="14.00" fill="#000000">5</text>
</g>
<!-- 2&#45;&gt;5 -->
<g id="edge4" class="edge">
<title>2-&gt;5</title>
<path fill="none" stroke="#000000" d="M99,-247.8314C99,-240.131 99,-230.9743 99,-222.4166"/>
<polygon fill="#000000" stroke="#000000" points="102.5001,-222.4132 99,-212.4133 95.5001,-222.4133 102.5001,-222.4132"/>
</g>
<!-- 0 -->
<g id="node6" class="node">
<title>0</title>
<ellipse fill="none" stroke="#000000" cx="171" cy="-194" rx="27" ry="18"/>
<text text-anchor="middle" x="171" y="-189.8" font-family="Times,serif" font-size="14.00" fill="#000000">0</text>
</g>
<!-- 12&#45;&gt;0 -->
<g id="edge5" class="edge">
<title>12-&gt;0</title>
<path fill="none" stroke="#000000" d="M171,-247.8314C171,-240.131 171,-230.9743 171,-222.4166"/>
<polygon fill="#000000" stroke="#000000" points="174.5001,-222.4132 171,-212.4133 167.5001,-222.4133 174.5001,-222.4132"/>
</g>
<!-- &#45;4 -->
<g id="node7" class="node">
<title>-4</title>
<ellipse fill="none" stroke="#000000" cx="243" cy="-194" rx="27" ry="18"/>
<text text-anchor="middle" x="243" y="-189.8" font-family="Times,serif" font-size="14.00" fill="#000000">-4</text>
</g>
<!-- 12&#45;&gt;&#45;4 -->
<g id="edge6" class="edge">
<title>12-&gt;-4</title>
<path fill="none" stroke="#000000" d="M186.2693,-250.7307C196.197,-240.803 209.3153,-227.6847 220.4363,-216.5637"/>
<polygon fill="#000000" stroke="#000000" points="223.1564,-218.7933 227.7527,-209.2473 218.2067,-213.8436 223.1564,-218.7933"/>
</g>
</g>
</svg>